<!DOCTYPE svg PUBLIC "-//W3C//DTD SVG 1.1//EN" "http://www.w3.org/Graphics/SVG/1.1/DTD/svg11.dtd">
<!-- Uploaded to: SVG Repo, www.svgrepo.com, Transformed by: SVG Repo Mixer Tools -->
<svg fill="#ffffff" width="800px" height="800px" viewBox="0 0 256 256" id="Flat" xmlns="http://www.w3.org/2000/svg" stroke="#ffffff">
<g id="SVGRepo_bgCarrier" stroke-width="0"/>
<g id="SVGRepo_tracerCarrier" stroke-linecap="round" stroke-linejoin="round"/>
<g id="SVGRepo_iconCarrier"> <path d="M216.48535,119.51465a12.00062,12.00062,0,0,1,0,16.9707l-80,80a12.00033,12.00033,0,0,1-16.9707,0l-80-80a12.0001,12.0001,0,1,1,16.9707-16.9707L128,191.0293l71.51465-71.51465A11.99973,11.99973,0,0,1,216.48535,119.51465Zm-96.9707,16.9707a12.00033,12.00033,0,0,0,16.9707,0l80-80a12.0001,12.0001,0,0,0-16.9707-16.9707L128,111.0293,56.48535,39.51465a12.0001,12.0001,0,0,0-16.9707,16.9707Z"/> </g>
</svg>